{
    "accessors" : [
        {
            "bufferView" : 0,
            "componentType" : 5121,
            "count" : 36,
            "max" : [
                23
            ],
            "min" : [
                0
            ],
            "type" : "SCALAR"
        },
        {
            "bufferView" : 1,
            "componentType" : 5126,
            "count" : 24,
            "max" : [
                1.0,
                1.0,
                1.0
            ],
            "min" : [
                -1.0,
                -1.0,
                -1.0
            ],
            "type" : "VEC3"
        },
        {
            "bufferView" : 2,
            "componentType" : 5126,
            "count" : 24,
            "max" : [
                1.0,
                1.0,
                1.0
            ],
            "min" : [
                -1.0,
                -1.0,
                -1.0
            ],
            "type" : "VEC3"
        },
        {
            "bufferView" : 3,
            "componentType" : 5123,
            "count" : 214377,
            "max" : [
                42519
            ],
            "min" : [
                0
            ],
            "type" : "SCALAR"
        },
        {
            "bufferView" : 4,
            "componentType" : 5126,
            "count" : 42520,
            "max" : [
                0.16825458407402039,
                0.05441596731543541,
                0.11307576298713684
            ],
            "min" : [
                -0.1609356552362442,
                0.00653458945453167,
                -0.10772015899419785
            ],
            "type" : "VEC3"
        },
        {
            "bufferView" : 5,
            "componentType" : 5126,
            "count" : 42520,
            "max" : [
                0.9986876845359802,
                0.999969482421875,
                0.999969482421875
            ],
            "min" : [
                -0.9986876845359802,
                -0.999969482421875,
                -0.999664306640625
            ],
            "type" : "VEC3"
        },
        {
            "bufferView" : 6,
            "componentType" : 5126,
            "count" : 42520,
            "max" : [
                0.9999951124191284,
                0.9972612261772156,
                0.9998654127120972,
                1.0
            ],
            "min" : [
                -0.9999878406524658,
                -0.993752658367157,
                -0.9997164607048035,
                -1.0
            ],
            "type" : "VEC4"
        },
        {
            "bufferView" : 7,
            "componentType" : 5126,
            "count" : 42520,
            "max" : [
                0.7879229784011841,
                0.7598499953746796
            ],
            "min" : [
                0.0018390000332146883,
                0.001837015151977539
            ],
            "type" : "VEC2"
        }
    ],
    "asset" : {
        "generator" : "Khronos Blender glTF 2.0 exporter",
        "version" : "2.0"
    },
    "bufferViews" : [
        {
            "buffer" : 0,
            "byteLength" : 36,
            "byteOffset" : 0,
            "target" : 34963
        },
        {
            "buffer" : 0,
            "byteLength" : 288,
            "byteOffset" : 36,
            "target" : 34962
        },
        {
            "buffer" : 0,
            "byteLength" : 288,
            "byteOffset" : 324,
            "target" : 34962
        },
        {
            "buffer" : 0,
            "byteLength" : 428754,
            "byteOffset" : 612,
            "target" : 34963
        },
        {
            "buffer" : 0,
            "byteLength" : 510240,
            "byteOffset" : 429368,
            "target" : 34962
        },
        {
            "buffer" : 0,
            "byteLength" : 510240,
            "byteOffset" : 939608,
            "target" : 34962
        },
        {
            "buffer" : 0,
            "byteLength" : 680320,
            "byteOffset" : 1449848,
            "target" : 34962
        },
        {
            "buffer" : 0,
            "byteLength" : 340160,
            "byteOffset" : 2130168,
            "target" : 34962
        }
    ],
    "buffers" : [
        {
            "byteLength" : 2470328,
            "uri" : "pizzaG.bin"
        }
    ],
    "images" : [
        {
            "name" : "texture_0",
            "uri" : "texture_0.png"
        }
    ],
    "materials" : [
        {
            "emissiveFactor" : [
                0.03199999976158141,
                0.03199999976158141,
                0.03199999976158141
            ],
            "name" : "Material.001",
            "pbrMetallicRoughness" : {
                "baseColorFactor" : [
                    0.19166662978629212,
                    0.19166662978629212,
                    0.19166662978629212,
                    1.0
                ],
                "metallicFactor" : 0.0
            }
        },
        {
            "alphaMode" : "BLEND",
            "name" : "TextureAtlas_0",
            "pbrMetallicRoughness" : {
                "baseColorFactor" : [
                    0.6000000238418579,
                    0.6000000238418579,
                    0.6000000238418579,
                    1.0
                ],
                "baseColorTexture" : {
                    "index" : 0
                },
                "metallicFactor" : 0.0
            }
        }
    ],
    "meshes" : [
        {
            "name" : "Cube.001",
            "primitives" : [
                {
                    "attributes" : {
                        "NORMAL" : 2,
                        "POSITION" : 1
                    },
                    "indices" : 0,
                    "material" : 0
                }
            ]
        },
        {
            "name" : "TexturedMesh",
            "primitives" : [
                {
                    "attributes" : {
                        "NORMAL" : 5,
                        "POSITION" : 4,
                        "TANGENT" : 6,
                        "TEXCOORD_0" : 7
                    },
                    "indices" : 3,
                    "material" : 1
                }
            ]
        }
    ],
    "nodes" : [
        {
            "name" : "Camera",
            "rotation" : [
                0.483536034822464,
                0.33687159419059753,
                -0.20870360732078552,
                0.7804827094078064
            ],
            "translation" : [
                7.481131553649902,
                5.34366512298584,
                6.5076398849487305
            ]
        },
        {
            "mesh" : 0,
            "name" : "Cube",
            "scale" : [
                0.20100001990795135,
                0.003000000026077032,
                0.20100001990795135
            ],
            "translation" : [
                0.0028120651841163635,
                0.010941796004772186,
                -0.011626534163951874
            ]
        },
        {
            "name" : "Lamp",
            "rotation" : [
                0.16907575726509094,
                0.7558802962303162,
                -0.27217137813568115,
                0.570947527885437
            ],
            "scale" : [
                1.0,
                1.0,
                0.9999999403953552
            ],
            "translation" : [
                -0.638023316860199,
                0.5597045421600342,
                -0.7699005603790283
            ]
        },
        {
            "name" : "Lamp.001",
            "rotation" : [
                0.16907575726509094,
                0.7558802962303162,
                -0.27217137813568115,
                0.570947527885437
            ],
            "scale" : [
                1.0,
                1.0,
                0.9999999403953552
            ],
            "translation" : [
                -0.638023316860199,
                -0.06793469190597534,
                1.074210286140442
            ]
        },
        {
            "name" : "Lamp.002",
            "rotation" : [
                0.16907575726509094,
                0.7558802962303162,
                -0.27217137813568115,
                0.570947527885437
            ],
            "scale" : [
                1.0,
                1.0,
                0.9999999403953552
            ],
            "translation" : [
                1.4140698909759521,
                0.5597045421600342,
                -0.08355855941772461
            ]
        },
        {
            "mesh" : 1,
            "name" : "TexturedMesh"
        }
    ],
    "samplers" : [
        {}
    ],
    "scene" : 0,
    "scenes" : [
        {
            "name" : "Scene",
            "nodes" : [
                1,
                5,
                2,
                0,
                3,
                4
            ]
        }
    ],
    "textures" : [
        {
            "sampler" : 0,
            "source" : 0
        }
    ]
}
