{
    "accessors" : [
        {
            "bufferView" : 0,
            "componentType" : 5123,
            "count" : 214377,
            "max" : [
                42519
            ],
            "min" : [
                0
            ],
            "type" : "SCALAR"
        },
        {
            "bufferView" : 1,
            "componentType" : 5126,
            "count" : 42520,
            "max" : [
                0.2717041075229645,
                0.24981170892715454,
                0.008109254762530327
            ],
            "min" : [
                -0.2963346242904663,
                -0.13118226826190948,
                -0.07247956842184067
            ],
            "type" : "VEC3"
        },
        {
            "bufferView" : 2,
            "componentType" : 5126,
            "count" : 42520,
            "max" : [
                0.9987487196922302,
                0.999969482421875,
                0.999969482421875
            ],
            "min" : [
                -0.9987487196922302,
                -0.999542236328125,
                -0.999969482421875
            ],
            "type" : "VEC3"
        },
        {
            "bufferView" : 3,
            "componentType" : 5126,
            "count" : 42520,
            "max" : [
                0.9999938011169434,
                0.9998188018798828,
                0.9931420683860779,
                1.0
            ],
            "min" : [
                -0.9999833106994629,
                -0.9997161626815796,
                -0.9969998002052307,
                -1.0
            ],
            "type" : "VEC4"
        },
        {
            "bufferView" : 4,
            "componentType" : 5126,
            "count" : 42520,
            "max" : [
                0.7879229784011841,
                0.7598499953746796
            ],
            "min" : [
                0.0018390000332146883,
                0.001837015151977539
            ],
            "type" : "VEC2"
        },
        {
            "bufferView" : 5,
            "componentType" : 5121,
            "count" : 36,
            "max" : [
                23
            ],
            "min" : [
                0
            ],
            "type" : "SCALAR"
        },
        {
            "bufferView" : 6,
            "componentType" : 5126,
            "count" : 24,
            "max" : [
                1.0,
                1.0,
                1.0
            ],
            "min" : [
                -1.0,
                -1.0,
                -1.0
            ],
            "type" : "VEC3"
        },
        {
            "bufferView" : 7,
            "componentType" : 5126,
            "count" : 24,
            "max" : [
                1.0,
                1.0,
                1.0
            ],
            "min" : [
                -1.0,
                -1.0,
                -1.0
            ],
            "type" : "VEC3"
        }
    ],
    "asset" : {
        "generator" : "Khronos Blender glTF 2.0 exporter",
        "version" : "2.0"
    },
    "bufferViews" : [
        {
            "buffer" : 0,
            "byteLength" : 428754,
            "byteOffset" : 0,
            "target" : 34963
        },
        {
            "buffer" : 0,
            "byteLength" : 510240,
            "byteOffset" : 428756,
            "target" : 34962
        },
        {
            "buffer" : 0,
            "byteLength" : 510240,
            "byteOffset" : 938996,
            "target" : 34962
        },
        {
            "buffer" : 0,
            "byteLength" : 680320,
            "byteOffset" : 1449236,
            "target" : 34962
        },
        {
            "buffer" : 0,
            "byteLength" : 340160,
            "byteOffset" : 2129556,
            "target" : 34962
        },
        {
            "buffer" : 0,
            "byteLength" : 36,
            "byteOffset" : 2469716,
            "target" : 34963
        },
        {
            "buffer" : 0,
            "byteLength" : 288,
            "byteOffset" : 2469752,
            "target" : 34962
        },
        {
            "buffer" : 0,
            "byteLength" : 288,
            "byteOffset" : 2470040,
            "target" : 34962
        }
    ],
    "buffers" : [
        {
            "byteLength" : 2470328,
            "uri" : "pizzaG.bin"
        }
    ],
    "images" : [
        {
            "name" : "texture_0",
            "uri" : "texture_0.png"
        }
    ],
    "materials" : [
        {
            "emissiveFactor" : [
                0.03199999976158141,
                0.03199999976158141,
                0.03199999976158141
            ],
            "name" : "Material.001",
            "pbrMetallicRoughness" : {
                "baseColorFactor" : [
                    0.19166662978629212,
                    0.19166662978629212,
                    0.19166662978629212,
                    1.0
                ],
                "metallicFactor" : 0.0
            }
        },
        {
            "alphaMode" : "BLEND",
            "name" : "TextureAtlas_0",
            "pbrMetallicRoughness" : {
                "baseColorFactor" : [
                    0.6000000238418579,
                    0.6000000238418579,
                    0.6000000238418579,
                    1.0
                ],
                "baseColorTexture" : {
                    "index" : 0
                },
                "metallicFactor" : 0.0
            }
        }
    ],
    "meshes" : [
        {
            "name" : "TexturedMesh",
            "primitives" : [
                {
                    "attributes" : {
                        "NORMAL" : 2,
                        "POSITION" : 1,
                        "TANGENT" : 3,
                        "TEXCOORD_0" : 4
                    },
                    "indices" : 0,
                    "material" : 1
                }
            ]
        },
        {
            "name" : "Cube.001",
            "primitives" : [
                {
                    "attributes" : {
                        "NORMAL" : 7,
                        "POSITION" : 6
                    },
                    "indices" : 5,
                    "material" : 0
                }
            ]
        }
    ],
    "nodes" : [
        {
            "name" : "Camera",
            "rotation" : [
                0.483536034822464,
                0.33687159419059753,
                -0.20870360732078552,
                0.7804827094078064
            ],
            "translation" : [
                7.481131553649902,
                5.34366512298584,
                6.5076398849487305
            ]
        },
        {
            "mesh" : 1,
            "name" : "Cube",
            "scale" : [
                0.20100001990795135,
                0.0020100001711398363,
                0.20100001990795135
            ],
            "translation" : [
                -0.03525698557496071,
                0.010941796004772186,
                0.062396325170993805
            ]
        },
        {
            "name" : "Lamp",
            "rotation" : [
                0.16907575726509094,
                0.7558802962303162,
                -0.27217137813568115,
                0.570947527885437
            ],
            "scale" : [
                1.0,
                1.0,
                0.9999999403953552
            ],
            "translation" : [
                -0.638023316860199,
                0.5597045421600342,
                -0.7699005603790283
            ]
        },
        {
            "name" : "Lamp.001",
            "rotation" : [
                0.16907575726509094,
                0.7558802962303162,
                -0.27217137813568115,
                0.570947527885437
            ],
            "scale" : [
                1.0,
                1.0,
                0.9999999403953552
            ],
            "translation" : [
                -0.638023316860199,
                -0.06793469190597534,
                1.074210286140442
            ]
        },
        {
            "name" : "Lamp.002",
            "rotation" : [
                0.16907575726509094,
                0.7558802962303162,
                -0.27217137813568115,
                0.570947527885437
            ],
            "scale" : [
                1.0,
                1.0,
                0.9999999403953552
            ],
            "translation" : [
                1.4140698909759521,
                0.5597045421600342,
                -0.08355855941772461
            ]
        },
        {
            "mesh" : 0,
            "name" : "TexturedMesh",
            "rotation" : [
                0.7095069885253906,
                0.0010486128740012646,
                0.0006671372684650123,
                0.7046974301338196
            ],
            "scale" : [
                0.5799999833106995,
                0.5799999237060547,
                0.5800000429153442
            ],
            "translation" : [
                -0.027302592992782593,
                0.012379790656268597,
                0.07206560671329498
            ]
        }
    ],
    "samplers" : [
        {}
    ],
    "scene" : 0,
    "scenes" : [
        {
            "name" : "Scene",
            "nodes" : [
                1,
                5,
                2,
                0,
                3,
                4
            ]
        }
    ],
    "textures" : [
        {
            "sampler" : 0,
            "source" : 0
        }
    ]
}
